<svg width="28" height="28" viewBox="0 0 28 28" fill="none" xmlns="http://www.w3.org/2000/svg">
<g id="clear_24px">
<path id="icon/content/clear_24px" d="M21 8.41L19.59 7L14 12.59L8.41 7L7 8.41L12.59 14L7 19.59L8.41 21L14 15.41L19.59 21L21 19.59L15.41 14L21 8.41Z" fill="#333333"/>
<path d="M14 24C8.47715 24 4 19.5228 4 14H0C0 21.732 6.26801 28 14 28V24ZM24 14C24 19.5228 19.5228 24 14 24V28C21.732 28 28 21.732 28 14H24ZM14 4C19.5228 4 24 8.47715 24 14H28C28 6.26801 21.732 0 14 0V4ZM14 0C6.26801 0 0 6.26801 0 14H4C4 8.47715 8.47715 4 14 4V0Z" fill="black"/>
</g>
</svg>
