<svg width="92" height="92" viewBox="0 0 92 92" fill="none" xmlns="http://www.w3.org/2000/svg">
<path fill-rule="evenodd" clip-rule="evenodd" d="M46 0.166655C20.7 0.166655 0.166687 20.7 0.166687 46C0.166687 71.3 20.7 91.8333 46 91.8333C71.3 91.8333 91.8334 71.3 91.8334 46C91.8334 20.7 71.3 0.166655 46 0.166655ZM23.4042 74.7833C25.375 70.6583 37.3834 66.625 46 66.625C54.6167 66.625 66.6709 70.6583 68.5959 74.7833C62.3625 79.7333 54.525 82.6667 46 82.6667C37.475 82.6667 29.6375 79.7333 23.4042 74.7833ZM46 57.4583C52.6917 57.4583 68.5959 60.1625 75.15 68.1375C79.825 61.9958 82.6667 54.3417 82.6667 46C82.6667 25.7875 66.2125 9.33331 46 9.33331C25.7875 9.33331 9.33338 25.7875 9.33338 46C9.33338 54.3417 12.175 61.9958 16.85 68.1375C23.4042 60.1625 39.3084 57.4583 46 57.4583ZM46 18.5C37.1084 18.5 29.9584 25.65 29.9584 34.5417C29.9584 43.4333 37.1084 50.5833 46 50.5833C54.8917 50.5833 62.0417 43.4333 62.0417 34.5417C62.0417 25.65 54.8917 18.5 46 18.5ZM39.125 34.5417C39.125 38.3458 42.1958 41.4167 46 41.4167C49.8042 41.4167 52.875 38.3458 52.875 34.5417C52.875 30.7375 49.8042 27.6667 46 27.6667C42.1958 27.6667 39.125 30.7375 39.125 34.5417Z" fill="#333333"/>
</svg>
